<svg width="28" height="28" viewBox="0 0 28 28" fill="none" xmlns="http://www.w3.org/2000/svg">
<path d="M6.99995 7.875C6.99995 7.64294 7.09214 7.42038 7.25624 7.25628C7.42033 7.09219 7.64289 7 7.87495 7H10.5C10.732 7 10.9546 7.09219 11.1187 7.25628C11.2828 7.42038 11.375 7.64294 11.375 7.875C11.375 8.10706 11.2828 8.32962 11.1187 8.49372C10.9546 8.65781 10.732 8.75 10.5 8.75V9.625H17.745L18.4205 7.5985C18.4785 7.42434 18.5898 7.27283 18.7386 7.16542C18.8875 7.05801 19.0664 7.00014 19.25 7H21C21.232 7 21.4546 7.09219 21.6187 7.25628C21.7828 7.42038 21.875 7.64294 21.875 7.875C21.875 8.10706 21.7828 8.32962 21.6187 8.49372C21.4546 8.65781 21.232 8.75 21 8.75H19.88L19.3357 10.3862L20.748 12.6437C21.9649 12.1419 23.326 12.1155 24.5615 12.5698C25.797 13.0242 26.8167 13.9261 27.4186 15.0968C28.0205 16.2675 28.1606 17.6216 27.8112 18.8908C27.4618 20.1599 26.6483 21.2515 25.532 21.9492C24.4157 22.6469 23.0781 22.8998 21.7841 22.6577C20.4902 22.4156 19.3344 21.6963 18.5458 20.6423C17.7572 19.5882 17.3934 18.2764 17.5264 16.9668C17.6594 15.6571 18.2796 14.4452 19.264 13.5713L18.375 12.1502L14.742 17.9638C14.6633 18.0896 14.5539 18.1934 14.4241 18.2653C14.2943 18.3373 14.1484 18.375 14 18.375H10.4282C10.2467 19.4481 9.73622 20.4383 8.96734 21.2085C8.19846 21.9788 7.2092 22.491 6.13643 22.6744C5.06366 22.8578 3.96041 22.7033 2.97931 22.2322C1.9982 21.7612 1.18775 20.9968 0.660075 20.045C0.132397 19.0931 -0.0864211 18.0008 0.0338928 16.9191C0.154207 15.8375 0.607706 14.8199 1.33165 14.0073C2.05559 13.1947 3.01419 12.6271 4.07483 12.3831C5.13546 12.1392 6.24571 12.2308 7.25195 12.6455L8.74995 10.248V8.75H7.87495C7.64289 8.75 7.42033 8.65781 7.25624 8.49372C7.09214 8.32962 6.99995 8.10706 6.99995 7.875ZM9.62495 12.1502L8.73595 13.5747C9.61095 14.3517 10.2235 15.4192 10.4282 16.625H12.4215L9.62495 12.1502ZM14 15.8498L16.7965 11.375H11.2035L14 15.8498ZM8.6397 16.625C8.49083 16.0492 8.19749 15.521 7.78745 15.0903L6.82845 16.625H8.6397ZM6.3052 14.161C5.6376 13.9502 4.92211 13.9444 4.25119 14.1444C3.58028 14.3445 2.98477 14.7411 2.54162 15.2831C2.09847 15.8251 1.82806 16.4876 1.76531 17.1848C1.70256 17.8821 1.85037 18.5822 2.18963 19.1946C2.5289 19.807 3.04403 20.3036 3.66845 20.6202C4.29288 20.9368 4.9979 21.0589 5.69242 20.9706C6.38694 20.8824 7.03903 20.5879 7.56443 20.1251C8.08982 19.6624 8.46438 19.0528 8.6397 18.375H5.24995C5.09376 18.375 4.94042 18.3332 4.80584 18.2539C4.67126 18.1746 4.56036 18.0608 4.48464 17.9242C4.40892 17.7876 4.37115 17.6332 4.37525 17.477C4.37935 17.3209 4.42517 17.1687 4.50795 17.0362L6.3052 14.161V14.161ZM20.2125 15.0885C19.6259 15.7063 19.2847 16.5167 19.253 17.368C19.2212 18.2193 19.501 19.0529 20.0399 19.7127C20.5789 20.3724 21.3399 20.813 22.1804 20.9517C23.0209 21.0905 23.8832 20.918 24.6055 20.4665C25.3279 20.015 25.8609 19.3155 26.1044 18.4992C26.348 17.6829 26.2855 16.8058 25.9286 16.0323C25.5718 15.2587 24.945 14.6419 24.1659 14.2974C23.3868 13.953 22.5088 13.9044 21.6965 14.161L23.492 17.0362C23.5529 17.1337 23.594 17.2422 23.6129 17.3555C23.6319 17.4688 23.6284 17.5848 23.6025 17.6968C23.5767 17.8087 23.5291 17.9145 23.4624 18.008C23.3956 18.1016 23.3111 18.1811 23.2137 18.242C23.1163 18.3029 23.0078 18.344 22.8945 18.363C22.7811 18.382 22.6652 18.3784 22.5532 18.3526C22.4412 18.3268 22.3355 18.2791 22.2419 18.2124C22.1484 18.1457 22.0689 18.0612 22.008 17.9638L20.2125 15.0903V15.0885Z" fill="#464646"/>
</svg>
