<svg width="25" height="25" viewBox="0 0 25 25" fill="none" xmlns="http://www.w3.org/2000/svg">
<g clip-path="url(#clip0_47_54)">
<path d="M12.5 23.4375C9.59919 23.4375 6.8172 22.2852 4.76602 20.234C2.71484 18.1828 1.5625 15.4008 1.5625 12.5C1.5625 9.59919 2.71484 6.8172 4.76602 4.76602C6.8172 2.71484 9.59919 1.5625 12.5 1.5625C15.4008 1.5625 18.1828 2.71484 20.234 4.76602C22.2852 6.8172 23.4375 9.59919 23.4375 12.5C23.4375 15.4008 22.2852 18.1828 20.234 20.234C18.1828 22.2852 15.4008 23.4375 12.5 23.4375ZM12.5 25C15.8152 25 18.9946 23.683 21.3388 21.3388C23.683 18.9946 25 15.8152 25 12.5C25 9.18479 23.683 6.00537 21.3388 3.66117C18.9946 1.31696 15.8152 0 12.5 0C9.18479 0 6.00537 1.31696 3.66117 3.66117C1.31696 6.00537 0 9.18479 0 12.5C0 15.8152 1.31696 18.9946 3.66117 21.3388C6.00537 23.683 9.18479 25 12.5 25V25Z" fill="#464646"/>
<path d="M9.79844 7.89845C9.92622 7.83264 10.0697 7.80337 10.213 7.81385C10.3564 7.82432 10.4941 7.87414 10.6109 7.95782L16.0797 11.8641C16.181 11.9363 16.2635 12.0318 16.3205 12.1424C16.3774 12.253 16.4071 12.3756 16.4071 12.5C16.4071 12.6244 16.3774 12.747 16.3205 12.8577C16.2635 12.9683 16.181 13.0637 16.0797 13.1359L10.6109 17.0422C10.4941 17.1258 10.3565 17.1756 10.2132 17.1861C10.0699 17.1965 9.92655 17.1673 9.79881 17.1016C9.67107 17.0358 9.56392 16.9362 9.48915 16.8135C9.41438 16.6908 9.37488 16.5499 9.375 16.4063V8.59376C9.37485 8.45014 9.41429 8.30925 9.48899 8.18659C9.5637 8.06392 9.67077 7.96422 9.79844 7.89845V7.89845Z" fill="#464646"/>
</g>
<defs>
<clipPath id="clip0_47_54">
<rect width="25" height="25" fill="white"/>
</clipPath>
</defs>
</svg>
