<svg width="25" height="25" viewBox="0 0 25 25" fill="none" xmlns="http://www.w3.org/2000/svg">
<g clip-path="url(#clip0_46_48)">
<path d="M21.875 14.8438C21.875 15.6726 21.5458 16.4674 20.9597 17.0535C20.3737 17.6395 19.5788 17.9688 18.75 17.9688C17.9212 17.9688 17.1263 17.6395 16.5403 17.0535C15.9542 16.4674 15.625 15.6726 15.625 14.8438C15.625 14.0149 15.9542 13.2201 16.5403 12.634C17.1263 12.048 17.9212 11.7188 18.75 11.7188C19.5788 11.7188 20.3737 12.048 20.9597 12.634C21.5458 13.2201 21.875 14.0149 21.875 14.8438V14.8438ZM12.5 23.75C12.5 25 13.75 25 13.75 25H23.75C23.75 25 25 25 25 23.75C25 22.5 23.75 18.75 18.75 18.75C13.75 18.75 12.5 22.5 12.5 23.75Z" fill="#464646"/>
<path d="M3.125 3.125C2.2962 3.125 1.50134 3.45424 0.915291 4.04029C0.32924 4.62634 0 5.4212 0 6.25L0 18.75C0 19.5788 0.32924 20.3737 0.915291 20.9597C1.50134 21.5458 2.2962 21.875 3.125 21.875H11.3172C11.5078 21.3656 11.7781 20.8312 12.1391 20.3125H3.125C2.7106 20.3125 2.31317 20.1479 2.02015 19.8549C1.72712 19.5618 1.5625 19.1644 1.5625 18.75V6.25C1.5625 5.8356 1.72712 5.43817 2.02015 5.14515C2.31317 4.85212 2.7106 4.6875 3.125 4.6875H21.875C22.2894 4.6875 22.6868 4.85212 22.9799 5.14515C23.2729 5.43817 23.4375 5.8356 23.4375 6.25V18.4531C23.9891 18.8125 24.4625 19.2281 24.8594 19.6766C24.9516 19.3844 25 19.0734 25 18.75V6.25C25 5.4212 24.6708 4.62634 24.0847 4.04029C23.4987 3.45424 22.7038 3.125 21.875 3.125H3.125Z" fill="#464646"/>
</g>
<defs>
<clipPath id="clip0_46_48">
<rect width="25" height="25" fill="white"/>
</clipPath>
</defs>
</svg>
