<svg width="30" height="30" viewBox="0 0 30 30" fill="none" xmlns="http://www.w3.org/2000/svg">
<path d="M10.9762 9.10121C11.0634 9.01405 11.1325 8.91057 11.1797 8.79668C11.2269 8.6828 11.2512 8.56073 11.2512 8.43746C11.2512 8.31419 11.2269 8.19213 11.1797 8.07824C11.1325 7.96436 11.0634 7.86088 10.9762 7.77371C10.8891 7.68655 10.7856 7.61741 10.6717 7.57023C10.5578 7.52306 10.4357 7.49878 10.3125 7.49878C10.1892 7.49878 10.0671 7.52306 9.95325 7.57023C9.83936 7.61741 9.73588 7.68655 9.64872 7.77371L3.08622 14.3362C2.99891 14.4233 2.92964 14.5268 2.88238 14.6407C2.83512 14.7545 2.81079 14.8766 2.81079 15C2.81079 15.1233 2.83512 15.2454 2.88238 15.3593C2.92964 15.4732 2.99891 15.5766 3.08622 15.6637L9.64872 22.2262C9.82475 22.4023 10.0635 22.5011 10.3125 22.5011C10.5614 22.5011 10.8002 22.4023 10.9762 22.2262C11.1523 22.0502 11.2512 21.8114 11.2512 21.5625C11.2512 21.3135 11.1523 21.0748 10.9762 20.8987L5.07559 15L10.9762 9.10121V9.10121ZM19.0237 9.10121C18.8477 8.92518 18.7488 8.68642 18.7488 8.43746C18.7488 8.18851 18.8477 7.94975 19.0237 7.77371C19.1998 7.59768 19.4385 7.49878 19.6875 7.49878C19.9364 7.49878 20.1752 7.59768 20.3512 7.77371L26.9137 14.3362C27.001 14.4233 27.0703 14.5268 27.1176 14.6407C27.1648 14.7545 27.1891 14.8766 27.1891 15C27.1891 15.1233 27.1648 15.2454 27.1176 15.3593C27.0703 15.4732 27.001 15.5766 26.9137 15.6637L20.3512 22.2262C20.1752 22.4023 19.9364 22.5011 19.6875 22.5011C19.4385 22.5011 19.1998 22.4023 19.0237 22.2262C18.8477 22.0502 18.7488 21.8114 18.7488 21.5625C18.7488 21.3135 18.8477 21.0748 19.0237 20.8987L24.9243 15L19.0237 9.10121V9.10121Z" fill="#464646"/>
</svg>
