<svg width="22" height="36" viewBox="0 0 22 36" fill="none" xmlns="http://www.w3.org/2000/svg">
<g clip-path="url(#clip0_1_1336)">
<path d="M15.3005 4.31494H4.10527C2.46974 4.31494 1.13854 5.64497 1.13854 7.27714V18.2306H0.848724C0.188614 18.2306 -0.346619 18.7646 -0.346619 19.4242V26.6631C-0.346619 27.3227 0.188614 27.8568 0.848724 27.8568H1.13854V29.1841C1.13854 30.818 2.4698 32.1463 4.10527 32.1463H19.3808C21.0154 32.1463 22.3466 30.818 22.3466 29.1841V11.3255L15.3005 4.31494ZM5.363 24.819C5.70612 24.819 6.08653 24.7445 6.31073 24.6553L6.48191 25.5414C6.27326 25.646 5.80313 25.758 5.19175 25.758C3.45337 25.758 2.55814 24.6781 2.55814 23.2479C2.55814 21.5349 3.78175 20.5814 5.30345 20.5814C5.89291 20.5814 6.34033 20.7006 6.54163 20.8044L6.31073 21.7059C6.07924 21.6085 5.75855 21.5195 5.35577 21.5195C4.45279 21.5195 3.75169 22.0634 3.75169 23.1807C3.75169 24.1859 4.34849 24.819 5.363 24.819ZM19.3807 30.3322H4.10527C3.47199 30.3322 2.95624 29.8173 2.95624 29.1841V27.8568H17.1962C17.8564 27.8568 18.3917 27.3227 18.3917 26.6631V19.4242C18.3917 18.7646 17.8564 18.2306 17.1962 18.2306H2.95624V7.27714C2.95624 6.64569 3.47199 6.13078 4.10527 6.13078L14.6209 6.11987V10.0009C14.6209 11.1344 15.5421 12.0551 16.6783 12.0551L20.4859 12.0443L20.5287 29.1841C20.5287 29.8173 20.014 30.3322 19.3807 30.3322ZM8.4838 23.5754C7.64817 23.2853 7.1034 22.8231 7.1034 22.0934C7.1034 21.2363 7.81947 20.5814 9.00579 20.5814C9.57254 20.5814 9.99081 20.7005 10.2887 20.8343L10.0354 21.7505C9.83408 21.654 9.47593 21.512 8.98348 21.512C8.49103 21.512 8.25232 21.7359 8.25232 21.9961C8.25232 22.3163 8.53566 22.4583 9.18484 22.7039C10.0728 23.0314 10.4905 23.4936 10.4905 24.2014C10.4905 25.0429 9.84131 25.758 8.46137 25.758C7.88688 25.758 7.31974 25.6088 7.03639 25.4522L7.26776 24.5143C7.57354 24.6708 8.04367 24.8264 8.52837 24.8264C9.05048 24.8264 9.32654 24.6107 9.32654 24.2831C9.3266 23.9703 9.08789 23.791 8.4838 23.5754ZM12.5143 23.5754C11.6788 23.2853 11.1339 22.8231 11.1339 22.0934C11.1339 21.2363 11.8501 20.5814 13.0363 20.5814C13.6036 20.5814 14.0208 20.7005 14.3197 20.8343L14.066 21.7505C13.8646 21.654 13.5065 21.512 13.014 21.512C12.5216 21.512 12.2829 21.7359 12.2829 21.9961C12.2829 22.3163 12.5662 22.4583 13.2155 22.7039C14.1033 23.0314 14.5212 23.4936 14.5212 24.2014C14.5212 25.0429 13.872 25.758 12.492 25.758C11.9175 25.758 11.3503 25.6088 11.0669 25.4522L11.2984 24.5143C11.6041 24.6708 12.0742 24.8264 12.5589 24.8264C13.081 24.8264 13.3571 24.6107 13.3571 24.2831C13.3571 23.9703 13.1183 23.791 12.5143 23.5754Z" fill="#464646"/>
</g>
<defs>
<clipPath id="clip0_1_1336">
<rect width="22" height="35.5385" fill="white" transform="translate(0 0.461426)"/>
</clipPath>
</defs>
</svg>
