<svg width="28" height="28" viewBox="0 0 28 28" fill="none" xmlns="http://www.w3.org/2000/svg">
<path d="M27.4707 12.7522L15.2447 0.528264C15.0773 0.360789 14.8785 0.227936 14.6598 0.137295C14.441 0.0466534 14.2065 0 13.9697 0C13.7329 0 13.4985 0.0466534 13.2797 0.137295C13.061 0.227936 12.8622 0.360789 12.6948 0.528264L10.1572 3.06581L13.3773 6.28587C13.7571 6.1562 14.1657 6.13592 14.5564 6.22733C14.9472 6.31873 15.3044 6.51815 15.5872 6.80281C15.8701 7.08748 16.0672 7.44592 16.1561 7.83724C16.245 8.22856 16.2221 8.63699 16.09 9.01591L19.1928 12.1205C19.6519 11.9588 20.1523 11.9583 20.6117 12.1191C21.0711 12.2798 21.462 12.5922 21.7202 13.0048C21.9783 13.4173 22.0883 13.9055 22.0319 14.3889C21.9756 14.8723 21.7563 15.3221 21.4102 15.6643C21.0598 16.0168 20.5979 16.2368 20.1033 16.2865C19.6088 16.3363 19.1123 16.2129 18.6986 15.9373C18.285 15.6617 17.9799 15.251 17.8354 14.7754C17.691 14.2998 17.7161 13.7888 17.9065 13.3297L15.0137 10.4352V18.0531C15.4534 18.2707 15.8052 18.6325 16.0105 19.0781C16.2158 19.5237 16.2622 20.0262 16.1419 20.5019C16.0217 20.9776 15.742 21.3976 15.3495 21.6921C14.9571 21.9865 14.4756 22.1376 13.9852 22.1201C13.4949 22.1026 13.0254 21.9176 12.6549 21.5959C12.2845 21.2741 12.0355 20.8352 11.9495 20.3522C11.8634 19.8691 11.9455 19.3712 12.1821 18.9414C12.4187 18.5116 12.7955 18.1758 13.2496 17.9901V10.3022C12.9876 10.1948 12.7494 10.0367 12.5488 9.83684C12.3482 9.63701 12.1892 9.39945 12.0808 9.13786C11.9725 8.87627 11.917 8.59582 11.9175 8.31268C11.9181 8.02954 11.9747 7.7493 12.084 7.48814L8.91114 4.31358L0.528278 12.6962C0.360799 12.8636 0.227942 13.0624 0.137298 13.2811C0.0466546 13.4999 0 13.7343 0 13.9711C0 14.2079 0.0466546 14.4424 0.137298 14.6611C0.227942 14.8799 0.360799 15.0786 0.528278 15.246L12.7543 27.4717C12.9217 27.6392 13.1205 27.7721 13.3392 27.8627C13.558 27.9533 13.7924 28 14.0292 28C14.266 28 14.5005 27.9533 14.7193 27.8627C14.938 27.7721 15.1368 27.6392 15.3042 27.4717L27.4724 15.3038C27.8103 14.9655 28 14.5069 28 14.0289C28 13.5508 27.8103 13.0923 27.4724 12.754" fill="#464646"/>
</svg>
