<svg width="30" height="30" viewBox="0 0 30 30" fill="none" xmlns="http://www.w3.org/2000/svg">
<path d="M14.4073 16.0778C14.4073 16.0778 12.8225 13.0273 12.8821 10.7929C12.9248 9.20201 16.5167 7.62341 17.9291 5.33551C19.3414 3.04153 17.7567 0.813232 17.7567 0.813232C17.7567 0.813232 18.1075 2.45743 17.1664 4.16105C16.2315 5.8587 12.7631 6.86075 11.4117 9.79688C10.0649 12.7345 14.4073 16.0778 14.4073 16.0778Z" fill="#464646"/>
<path d="M20.342 6.80127C20.342 6.80127 14.9381 8.85578 14.9381 11.2031C14.9381 13.5566 16.4038 14.3192 16.6418 15.0818C16.8751 15.8444 16.2315 17.1378 16.2315 17.1378C16.2315 17.1378 18.3455 15.666 17.9886 13.9684C17.6378 12.2647 15.992 11.7339 16.9346 10.0302C17.566 8.89239 20.342 6.80127 20.342 6.80127Z" fill="#464646"/>
<path d="M13.8247 19.1815C18.8168 19.0031 20.6333 17.429 20.6333 17.429C17.4044 18.3107 8.83099 18.2511 8.77156 17.6075C8.71204 16.9593 11.4117 16.4285 11.4117 16.4285C11.4117 16.4285 7.18679 16.4285 6.836 17.4885C6.48374 18.544 8.83099 19.36 13.8247 19.1815Z" fill="#464646"/>
<path d="M21.0452 21.6603C21.0452 21.6603 25.9306 20.617 25.4485 17.9601C24.8643 14.7311 21.4555 16.5538 21.4555 16.5538C21.4555 16.5538 23.8638 16.5538 24.0956 18.0195C24.3336 19.4852 21.0452 21.6603 21.0452 21.6603Z" fill="#464646"/>
<path d="M18.6382 20.2479C18.6382 20.2479 17.4043 20.5758 15.5817 20.7787C13.1383 21.0517 10.1778 20.8382 9.94594 20.4264C9.71254 20.0161 10.3562 19.7766 10.3562 19.7766C7.41856 20.4858 9.02771 21.7137 12.4656 21.9516C15.4199 22.1545 19.8111 21.07 19.8111 21.07L18.6382 20.2479Z" fill="#464646"/>
<path d="M11.0655 22.8164C11.0655 22.8164 9.73095 22.8515 9.65312 23.5547C9.57529 24.2577 10.4752 24.8892 13.7636 25.0798C17.0536 25.2766 19.3582 24.1861 19.3582 24.1861L17.8757 23.2801C17.8757 23.2801 16.9345 23.4769 15.4855 23.6736C14.038 23.8703 11.0654 23.518 10.9464 23.2449C10.8276 22.9704 11.0655 22.8164 11.0655 22.8164Z" fill="#464646"/>
<path d="M13.2161 27.8266C20.2581 27.8206 23.3574 26.5332 23.8638 25.9856C24.3701 25.4366 23.702 25.008 23.702 25.008C23.702 25.008 23.9399 25.2826 23.6304 25.5922C23.3146 25.9079 20.4548 26.6889 15.873 26.9206C11.2972 27.1585 6.32344 26.492 6.16778 25.9079C6.0123 25.3176 8.71191 24.8479 8.71191 24.8479C8.40224 24.889 4.64254 24.9668 4.52359 25.9856C4.40482 27.0045 6.16787 27.8266 13.2161 27.8266Z" fill="#464646"/>
<path d="M21.123 28.2965C18.0298 28.9172 8.6344 28.5237 8.6344 28.5237C8.6344 28.5237 14.7414 29.9773 21.7118 28.7616C25.0429 28.1774 25.2336 26.5684 25.2336 26.5684C25.2336 26.5684 24.2146 27.6651 21.123 28.2965Z" fill="#464646"/>
</svg>
