<svg width="50" height="50" viewBox="0 0 50 50" fill="none" xmlns="http://www.w3.org/2000/svg">
<path d="M25 14.0625C19.1984 14.0625 13.6344 16.3672 9.53204 20.4695C5.42968 24.5719 3.125 30.1359 3.125 35.9375C3.125 36.3519 2.96038 36.7493 2.66735 37.0424C2.37433 37.3354 1.9769 37.5 1.5625 37.5C1.1481 37.5 0.750671 37.3354 0.457646 37.0424C0.16462 36.7493 0 36.3519 0 35.9375C0 29.3071 2.63392 22.9482 7.32233 18.2598C12.0107 13.5714 18.3696 10.9375 25 10.9375C31.6304 10.9375 37.9893 13.5714 42.6777 18.2598C47.3661 22.9482 50 29.3071 50 35.9375C50 36.3519 49.8354 36.7493 49.5424 37.0424C49.2493 37.3354 48.8519 37.5 48.4375 37.5C48.0231 37.5 47.6257 37.3354 47.3326 37.0424C47.0396 36.7493 46.875 36.3519 46.875 35.9375C46.875 30.1359 44.5703 24.5719 40.468 20.4695C36.3656 16.3672 30.8016 14.0625 25 14.0625V14.0625ZM25 20.3125C20.856 20.3125 16.8817 21.9587 13.9515 24.889C11.0212 27.8192 9.375 31.7935 9.375 35.9375C9.375 36.3519 9.21038 36.7493 8.91735 37.0424C8.62433 37.3354 8.2269 37.5 7.8125 37.5C7.3981 37.5 7.00067 37.3354 6.70765 37.0424C6.41462 36.7493 6.25 36.3519 6.25 35.9375C6.25 33.4752 6.73498 31.037 7.67726 28.7622C8.61953 26.4873 10.0006 24.4203 11.7417 22.6792C13.4828 20.9381 15.5498 19.557 17.8247 18.6148C20.0995 17.6725 22.5377 17.1875 25 17.1875C27.4623 17.1875 29.9005 17.6725 32.1753 18.6148C34.4502 19.557 36.5172 20.9381 38.2583 22.6792C39.9993 24.4203 41.3805 26.4873 42.3227 28.7622C43.265 31.037 43.75 33.4752 43.75 35.9375C43.75 36.3519 43.5854 36.7493 43.2924 37.0424C42.9993 37.3354 42.6019 37.5 42.1875 37.5C41.7731 37.5 41.3757 37.3354 41.0826 37.0424C40.7896 36.7493 40.625 36.3519 40.625 35.9375C40.625 31.7935 38.9788 27.8192 36.0485 24.889C33.1183 21.9587 29.144 20.3125 25 20.3125V20.3125ZM25 26.5625C22.5136 26.5625 20.129 27.5502 18.3709 29.3084C16.6127 31.0665 15.625 33.4511 15.625 35.9375C15.625 36.3519 15.4604 36.7493 15.1674 37.0424C14.8743 37.3354 14.4769 37.5 14.0625 37.5C13.6481 37.5 13.2507 37.3354 12.9576 37.0424C12.6646 36.7493 12.5 36.3519 12.5 35.9375C12.5 32.6223 13.817 29.4429 16.1612 27.0987C18.5054 24.7545 21.6848 23.4375 25 23.4375C28.3152 23.4375 31.4946 24.7545 33.8388 27.0987C36.183 29.4429 37.5 32.6223 37.5 35.9375C37.5 36.3519 37.3354 36.7493 37.0424 37.0424C36.7493 37.3354 36.3519 37.5 35.9375 37.5C35.5231 37.5 35.1257 37.3354 34.8326 37.0424C34.5396 36.7493 34.375 36.3519 34.375 35.9375C34.375 33.4511 33.3873 31.0665 31.6291 29.3084C29.871 27.5502 27.4864 26.5625 25 26.5625ZM25 32.8125C24.1712 32.8125 23.3763 33.1417 22.7903 33.7278C22.2042 34.3138 21.875 35.1087 21.875 35.9375C21.875 36.3519 21.7104 36.7493 21.4174 37.0424C21.1243 37.3354 20.7269 37.5 20.3125 37.5C19.8981 37.5 19.5007 37.3354 19.2076 37.0424C18.9146 36.7493 18.75 36.3519 18.75 35.9375C18.75 34.2799 19.4085 32.6902 20.5806 31.5181C21.7527 30.346 23.3424 29.6875 25 29.6875C26.6576 29.6875 28.2473 30.346 29.4194 31.5181C30.5915 32.6902 31.25 34.2799 31.25 35.9375C31.25 36.3519 31.0854 36.7493 30.7924 37.0424C30.4993 37.3354 30.1019 37.5 29.6875 37.5C29.2731 37.5 28.8757 37.3354 28.5826 37.0424C28.2896 36.7493 28.125 36.3519 28.125 35.9375C28.125 35.1087 27.7958 34.3138 27.2097 33.7278C26.6237 33.1417 25.8288 32.8125 25 32.8125V32.8125Z" fill="white"/>
</svg>
